<svg width="13" height="16" viewBox="0 0 13 16" fill="none" xmlns="http://www.w3.org/2000/svg">
<path d="M7.11621 12.2036H3.34277V15.6797H2.0918V12.2036H0V11.127H2.0918V9.59912H0V8.53271H2.0918V0.75H7.17773C8.75 0.75 9.97705 1.1499 10.8589 1.94971C11.7476 2.74268 12.1919 3.82275 12.1919 5.18994C12.1919 6.58447 11.7612 7.66797 10.8999 8.44043C10.0386 9.20605 8.80811 9.59229 7.2085 9.59912H3.34277V11.127H7.11621V12.2036ZM3.34277 8.53271H7.17773C8.36719 8.53271 9.29004 8.24561 9.94629 7.67139C10.6025 7.09033 10.9307 6.27002 10.9307 5.21045C10.9307 4.18506 10.6094 3.37158 9.9668 2.77002C9.33105 2.16846 8.45264 1.854 7.33154 1.82666H3.34277V8.53271Z" fill="#9CA4B3"/>
</svg>
